<?xml version="1.0" encoding="UTF-8"?>
<svg id="Layer_2" data-name="Layer 2" xmlns="http://www.w3.org/2000/svg" xmlns:xlink="http://www.w3.org/1999/xlink" viewBox="0 0 627.1 100.41">
  <defs>
    <style>
      .cls-1 {
        fill: url(#linear-gradient);
      }

      .cls-2 {
        fill: #fff;
      }
    </style>
    <linearGradient id="linear-gradient" x1="86.52" y1="161.86" x2="215.93" y2="-62.28" gradientTransform="translate(9.85 -14.45) rotate(5.78)" gradientUnits="userSpaceOnUse">
      <stop offset="0" stop-color="#ee8473"/>
      <stop offset="1" stop-color="#f19b5a"/>
    </linearGradient>
  </defs>
  <g id="Layer_1-2" data-name="Layer 1">
    <path class="cls-1" d="M296.39,100.35l-290.69,.06c-3.25,0-5.93-2.17-5.68-4.61L9.35,3.52C9.56,1.5,11.72,0,14.42,0L305.07,.34c3.25,0,5.92,2.17,5.67,4.61l-9.3,91.88c-.2,2.02-2.36,3.52-5.05,3.52Z"/>
    <g>
      <path class="cls-2" d="M69.81,26.39h17.87s14.34,48.67,14.34,48.67h-16.34s-1.67-7.02-1.67-7.02h-22.81s-3.96,7.03-3.96,7.03h-17.04s29.61-48.68,29.61-48.68Zm11.48,30.11l-3.9-16.69h-.35s-9.38,16.69-9.38,16.69h13.63Z"/>
      <path class="cls-2" d="M116.55,26.38h13.42s20.31,26.35,20.31,26.35l4.1-26.36h15.37s-7.64,48.67-7.64,48.67h-13.42s-20.17-26.28-20.17-26.28l-4.17,26.29h-15.44s7.64-48.67,7.64-48.67Z"/>
      <path class="cls-2" d="M176.71,26.37h16.76s7.45,31.56,7.45,31.56l17.52-31.57h17.8s-29.26,48.68-29.26,48.68h-16.41s-13.85-48.67-13.85-48.67Z"/>
      <path class="cls-2" d="M243.39,26.55l15.56-.74-5.39,48.99-15.49,.74,5.32-48.98Z"/>
    </g>
    <g>
      <path class="cls-2" d="M354.58,28.18h5.21l28.14,37.36V28.18h5.61v46.78h-5.21l-28.14-37.36v37.36h-5.61V28.18Z"/>
      <path class="cls-2" d="M417.14,70.69c4.08,0,8.15-2.47,10.76-6.22v-21.59h5.35v32.08h-4.81v-4.95c-3.01,3.68-7.62,5.61-12.03,5.61-7.42,0-12.9-5.01-12.9-12.56v-20.18h5.35v19.78c0,5.41,3.48,8.02,8.29,8.02Z"/>
      <path class="cls-2" d="M442.33,42.89h4.81v4.28c3.01-3.27,7.15-4.95,11.36-4.95,4.48,0,7.95,2,9.96,5.21,3.48-3.34,7.75-5.21,12.1-5.21,7.15,0,11.76,4.88,11.76,12.43v20.32h-5.35v-20.45c0-4.95-2.81-7.35-6.95-7.35-3.61,0-7.35,2.07-9.89,5.08,.13,.8,.2,1.6,.2,2.41v20.32h-5.35v-20.45c0-4.95-3.01-7.35-7.15-7.35-3.88,0-7.62,2.34-10.16,5.55v22.26h-5.35V42.89Z"/>
      <path class="cls-2" d="M501.8,28.18h5.35v19.45c2.34-2.67,6.42-5.41,12.7-5.41,9.42,0,15.77,7.22,15.77,16.71s-6.35,16.71-15.77,16.71c-5.41,0-9.96-1.74-13.23-5.68v5.01h-4.81V28.18Zm17.18,42.51c6.75,0,11.29-4.75,11.29-11.76s-4.54-11.76-11.29-11.76c-5.01,0-9.62,2.81-11.83,7.28v9.76c2.47,3.94,6.95,6.48,11.83,6.48Z"/>
      <path class="cls-2" d="M541.1,58.93c0-9.89,7.15-16.71,16.57-16.71,10.89,0,16.51,8.22,14.3,19.05h-25.53c1,7.02,6.62,9.42,13.23,9.42,3.94,0,7.82-1.07,10.56-2.61v5.21c-3.34,1.54-7.15,2.34-11.36,2.34-9.49,0-17.78-5.41-17.78-16.71Zm26.13-2.34c.74-5.75-3.61-9.49-9.56-9.49s-10.23,3.88-11.16,9.49h20.72Z"/>
      <path class="cls-2" d="M579.72,42.89h4.81v5.68c2.54-4.14,8.15-6.68,13.83-6.22v5.35c-6.28-.74-11.36,2.21-13.3,7.28v19.98h-5.35V42.89Z"/>
      <path class="cls-2" d="M601.44,72.49v-5.21c3.07,2.07,7.89,3.41,12.16,3.41,5.55,0,8.15-1.27,8.15-3.88,0-6.62-20.18-4.28-20.18-15.57,0-5.41,4.81-9.02,12.23-9.02,3.94,0,8.09,1,11.36,2.74v5.08c-2.74-1.8-7.22-3.01-11.03-3.01-4.68,0-7.15,1.47-7.15,4.08,0,6.88,20.12,4.34,20.12,15.71,0,5.55-4.81,8.82-13.23,8.82-4.61,0-9.49-1.2-12.43-3.14Z"/>
    </g>
  </g>
</svg>